<?xml version="1.0" encoding="UTF-8"?>
<svg id="Layer_1" xmlns="http://www.w3.org/2000/svg" version="1.1" viewBox="0 0 407.6 322.5">
  <!-- Generator: Adobe Illustrator 30.1.0, SVG Export Plug-In . SVG Version: 2.1.1 Build 136)  -->
  <defs>
    <style>
      .st0 {
        fill: #231f20;
      }

      .st1 {
        stroke: #231f20;
      }

      .st1, .st2 {
        fill: none;
        stroke-miterlimit: 10;
      }

      .st3 {
        fill: #ccb49a;
      }

      .st2 {
        stroke: #ccb49a;
      }
    </style>
  </defs>
  <g id="Layer_11" data-name="Layer_1">
    <g>
      <rect class="st3" width="407.6" height="322.5" rx="22.7" ry="22.7"/>
      <rect class="st1" width="407.6" height="322.5" rx="22.7" ry="22.7"/>
      <rect class="st2" width="407.6" height="322.5" rx="22.7" ry="22.7"/>
    </g>
  </g>
  <g id="Layer_3">
    <path class="st0" d="M86.6,154.7l39.8-11.5c12.9-3.7,25.8-7.5,37.9-13.2,15.1-7.1,28.7-17.2,40-29.6,7.1-7.9,13.4-16.9,15.8-27.3,3.6-15.5-2.8-32.8-15.4-42.3-12.6-9.4-30.9-10.4-44.4-2.4-10.8,6.4-18.1,17.6-22.4,29.5s-5.7,24.6-7.1,37.1c-3.3,28.8-6.6,57.5-9.9,86.3-.7,6.3-.5,12.3-1.3,18.6s-2.6,12.6-6,17.9c-1.8,2.9-4.6,5.7-8,5.4-3.6-.3-6.1-4.2-6.2-7.9-.2-5.8,4.6-11.4,10.3-12,3.4-.4,6.8.8,9.9,2.2,16.1,7,29.5,19.2,42.5,31.2,5.3,4.8,11.7,8.9,18.6,10.5,6.9,1.5,14.4.8,20.9-2.1,3.8-1.7,7.3-4.1,10.6-6.7,13-10.5,22.9-24.8,28.1-40.8-5.5-5.5-10.5-11.4-14.9-17.8-1.7,9.5-4.6,20-9.5,28.2s-13.5,15-23,14.6c-10.7-.4-19-8.9-27-16-8.1-7.1-16.9-13.4-26.4-18.5-10.7-5.8-22.8-10.3-34.8-8.4-11.8,1.9-22.3,10.4-26.7,21.5s-2.7,24.7,4.4,34.3c7.2,9.6,19.5,15.1,31.3,13.8,13.8-1.4,25.7-11.3,32.9-23.3,7.2-12,10.4-26,13-39.8,3.5-19.3,5.9-38.8,7-58.3,1.6-26.8,9-68,14.1-73.8,4.3-5.7,10.5-4.3,13.1-1.4s3.8,6.9,4.1,10.7c.9,10.6-4.4,21.1-11.9,28.5-7.5,7.5-17.1,12.4-26.7,16.8-23.4,10.5-48,18.1-73.2,22.6.3,7.2.1,15.6.4,22.9h0Z"/>
    <path class="st0" d="M265.5,156c-4.7-.2-9.5.2-13.8,2.1s-8.2,5.2-9.9,9.8c-2.1,5.4-.8,11.8,2.4,16.6s8.1,8.1,13.4,10.2c14.5,5.9,32,3,44-7.3s18-27.6,15-43.4c-3.1-16.5-15.3-30.4-30.4-36.8-15-6.4-32.4-5.6-47.6.4s-28.2,16.9-38.6,29.9c-23.3,29-33.1,69.1-26.2,106.1,3.2,17.2,15,31.8,28.9,41.8s31,15,47.9,13.9c16.8-1.1,32.9-8.1,46.6-18.2s25-23.4,34.7-37.6c-2.7-5-5.4-10-8.1-15-7.9,10.4-16.2,20.7-26,29.1-9.9,8.5-21.5,15.1-34.1,17.4s-26.3-.2-36.5-8.3c-12.5-10-20.9-26.3-20.9-42.6,0-20.5,1.9-30.6,6.5-46.1,4-13.5,12.1-24,21.5-34.2,3.5-3.8,13.3-11.1,18-13,6.7-2.6,8.4-3.1,13.8-3.9,4.6-.7,11.6.2,15.8,2.1,3.6,1.6,6.1,3.1,8.1,6.6,3.5,6.3,5.5,13.6,4.8,20.9s-4.1,14.3-9.7,18.6c-2.7,2.1-5.9,3.6-9.2,3.8s-6.9-1-9.1-3.6c-2.1-2.4-3-5.8-3.1-9.1s1-6.8,1.8-10h0Z"/>
  </g>
</svg>