<?xml version="1.0" encoding="UTF-8"?>
<svg xmlns="http://www.w3.org/2000/svg" viewBox="0 0 595.28 841.89">
  <defs>
    <style>
      .cls-1 {
        stroke: #231f20;
      }

      .cls-1, .cls-2 {
        fill: none;
        stroke-miterlimit: 10;
      }

      .cls-2 {
        stroke: #ccb49a;
      }

      .cls-3 {
        fill: #231f20;
      }

      .cls-4 {
        fill: #ccb49a;
      }
    </style>
  </defs>
  <g id="Layer_1" data-name="Layer 1">
    <g>
      <rect class="cls-4" x="75.31" y="166.83" width="407.63" height="322.5" rx="22.68" ry="22.68"/>
      <rect class="cls-1" x="75.31" y="166.83" width="407.63" height="322.5" rx="22.68" ry="22.68"/>
      <rect class="cls-2" x="75.31" y="166.83" width="407.63" height="322.5" rx="22.68" ry="22.68"/>
    </g>
  </g>
  <g id="Layer_3" data-name="Layer 3">
    <path class="cls-3" d="M161.92,321.53l39.82-11.49c12.87-3.71,25.8-7.45,37.93-13.16,15.06-7.09,28.73-17.21,39.97-29.59,7.13-7.85,13.42-16.89,15.81-27.28,3.56-15.49-2.76-32.84-15.41-42.28-12.65-9.43-30.89-10.41-44.44-2.37-10.78,6.39-18.12,17.59-22.36,29.48-4.24,11.89-5.71,24.58-7.14,37.14-3.29,28.78-6.57,57.55-9.86,86.33-.72,6.31-.47,12.31-1.29,18.6s-2.6,12.56-5.99,17.91c-1.83,2.88-4.64,5.71-8.01,5.44-3.62-.29-6.08-4.2-6.19-7.88-.18-5.83,4.6-11.37,10.33-11.97,3.42-.36,6.8.83,9.95,2.21,16.15,7.05,29.48,19.24,42.49,31.22,5.26,4.84,11.66,8.91,18.6,10.46,6.94,1.54,14.36.8,20.88-2.08,3.83-1.69,7.32-4.09,10.59-6.72,13.02-10.45,22.93-24.84,28.1-40.84-5.45-5.54-10.48-11.37-14.88-17.8-1.73,9.47-4.62,19.97-9.49,28.24-4.87,8.27-13.54,14.96-23.05,14.63-10.66-.36-19-8.88-27.03-15.99-8.07-7.14-16.93-13.36-26.37-18.5-10.68-5.82-22.78-10.34-34.76-8.4-11.76,1.9-22.28,10.37-26.74,21.55s-2.72,24.67,4.44,34.31c7.16,9.64,19.47,15.08,31.32,13.84,13.79-1.44,25.67-11.29,32.9-23.27,7.22-11.98,10.45-25.95,12.97-39.75,3.52-19.27,5.87-38.77,7.04-58.33,1.6-26.76,8.97-67.99,14.07-73.81,4.3-5.72,10.54-4.31,13.13-1.41s3.78,6.85,4.09,10.74c.85,10.63-4.4,21.06-11.92,28.54s-17.1,12.43-26.72,16.76c-23.38,10.52-48.03,18.14-73.23,22.63.32,7.25.11,15.63.44,22.88Z"/>
    <path class="cls-3" d="M340.84,322.85c-4.69-.18-9.48.24-13.82,2.08s-8.2,5.25-9.93,9.76c-2.07,5.41-.8,11.79,2.41,16.56s8.15,8.07,13.38,10.2c14.5,5.92,32.02,3.03,44.02-7.27,12-10.3,17.99-27.58,15.04-43.43-3.07-16.5-15.32-30.42-30.35-36.77-15.03-6.35-32.4-5.56-47.57.44s-28.22,16.92-38.58,29.86c-23.26,29.05-33.13,69.09-26.18,106.12,3.23,17.17,14.99,31.8,28.85,41.81s31.04,14.97,47.91,13.87c16.8-1.1,32.94-8.07,46.62-18.22,13.68-10.15,25.01-23.37,34.66-37.64-2.69-5-5.39-10-8.08-15-7.91,10.43-16.18,20.68-26.04,29.15-9.86,8.47-21.46,15.12-34.09,17.38s-26.33-.23-36.46-8.34c-12.46-9.97-20.91-26.3-20.85-42.6.07-20.46,1.91-30.57,6.53-46.15,3.99-13.46,12.12-23.99,21.46-34.22,3.45-3.78,13.26-11.12,17.97-12.95,6.67-2.58,8.36-3.07,13.77-3.91,4.57-.7,11.56.18,15.79,2.12,3.58,1.64,6.13,3.08,8.11,6.59,3.54,6.27,5.46,13.62,4.79,20.85s-4.08,14.27-9.68,18.64c-2.69,2.09-5.89,3.57-9.25,3.76s-6.86-1.02-9.13-3.59c-2.15-2.42-3.04-5.82-3.08-9.1s1.05-6.79,1.78-9.99Z"/>
  </g>
</svg>